<svg id="Layer_1" data-name="Layer 1" xmlns="http://www.w3.org/2000/svg" viewBox="0 0 54.14 34.39"><defs><style>.cls-1{fill:#282828;}.cls-2{fill:#fff;}</style></defs><title>ui_bumper_left</title><path class="cls-1" d="M6.76,5.9,37.31.13A7.22,7.22,0,0,1,42,.81L48.5,4.17a7.26,7.26,0,0,1,3.61,8.56L47,29.27a7.24,7.24,0,0,1-6.92,5.12H7.24A7.25,7.25,0,0,1,0,26.71L.88,12.57A7.22,7.22,0,0,1,6.76,5.9Z"/><path class="cls-2" d="M18.89,25V14.24h2.29v8.91h4.38V25Z"/><path class="cls-2" d="M28,14.24H31.4a6.52,6.52,0,0,1,3.33.65,2.29,2.29,0,0,1,1,2.08,2.63,2.63,0,0,1-.45,1.59,1.89,1.89,0,0,1-1.21.75v.07a2.37,2.37,0,0,1,1.48.86A2.78,2.78,0,0,1,36,21.91,2.74,2.74,0,0,1,35,24.21a4.63,4.63,0,0,1-2.9.83H28Zm2.29,4.28h1.33A2.4,2.4,0,0,0,33,18.23a1.09,1.09,0,0,0,.42-1,1,1,0,0,0-.45-.89,2.91,2.91,0,0,0-1.44-.27h-1.2Zm0,1.81v2.82h1.49a2.17,2.17,0,0,0,1.4-.37,1.33,1.33,0,0,0,.45-1.1q0-1.35-1.92-1.35Z"/></svg>