<svg id="Layer_1" data-name="Layer 1" xmlns="http://www.w3.org/2000/svg" viewBox="0 0 54.14 34.39"><defs><style>.cls-1{fill:#282828;}.cls-2{fill:#fff;}</style></defs><title>ui_bumper_right</title><path class="cls-1" d="M45.66,5.9,15.11.13a7.24,7.24,0,0,0-4.66.68L3.92,4.17a7.24,7.24,0,0,0-3.6,8.56L5.38,29.27a7.24,7.24,0,0,0,6.93,5.12H45.19a7.23,7.23,0,0,0,7.22-7.68l-.86-14.14A7.24,7.24,0,0,0,45.66,5.9Z"/><path class="cls-2" d="M20.46,20.89V25H18.17V14.24h3.15a5.4,5.4,0,0,1,3.25.8,2.84,2.84,0,0,1,1.06,2.43,2.88,2.88,0,0,1-.53,1.7,3.48,3.48,0,0,1-1.48,1.16c1.63,2.43,2.68,4,3.18,4.71H24.26l-2.58-4.15Zm0-1.86h.74a2.83,2.83,0,0,0,1.6-.36,1.3,1.3,0,0,0,.52-1.14,1.19,1.19,0,0,0-.53-1.09,3.17,3.17,0,0,0-1.64-.33h-.69Z"/><path class="cls-2" d="M28.76,14.24h3.36a6.52,6.52,0,0,1,3.33.65,2.27,2.27,0,0,1,1,2.08A2.63,2.63,0,0,1,36,18.56a1.89,1.89,0,0,1-1.21.75v.07a2.37,2.37,0,0,1,1.48.86,2.78,2.78,0,0,1,.45,1.67,2.74,2.74,0,0,1-1.06,2.3,4.63,4.63,0,0,1-2.9.83h-4Zm2.29,4.28h1.33a2.46,2.46,0,0,0,1.35-.29,1.11,1.11,0,0,0,.41-1,1,1,0,0,0-.45-.89,2.91,2.91,0,0,0-1.44-.27h-1.2Zm0,1.81v2.82h1.49a2.17,2.17,0,0,0,1.4-.37,1.33,1.33,0,0,0,.45-1.1q0-1.35-1.92-1.35Z"/></svg>