<svg id="Layer_1" data-name="Layer 1" xmlns="http://www.w3.org/2000/svg" viewBox="0 0 109 95"><defs><style>.cls-1{opacity:0.6;}.cls-2{fill:#08060b;}</style></defs><title>ui_bg</title><g class="cls-1"><rect class="cls-2" x="0.5" y="0.5" width="108" height="94" rx="2.97" ry="2.97"/><path class="cls-2" d="M105.53,95H3.47A3.48,3.48,0,0,1,0,91.53V3.47A3.48,3.48,0,0,1,3.47,0H105.53A3.48,3.48,0,0,1,109,3.47V91.53A3.48,3.48,0,0,1,105.53,95ZM3.47,1A2.48,2.48,0,0,0,1,3.47V91.53A2.48,2.48,0,0,0,3.47,94H105.53A2.48,2.48,0,0,0,108,91.53V3.47A2.48,2.48,0,0,0,105.53,1Z"/></g></svg>