<svg id="Layer_1" data-name="Layer 1" xmlns="http://www.w3.org/2000/svg" viewBox="0 0 33.55 33.55"><defs><style>.cls-1{fill:#383838;}.cls-2{fill:#3d3d3d;}.cls-3{opacity:0.6;}.cls-4{fill:#2d2d2d;}.cls-5{fill:#37e5df;}.cls-6{fill:none;}.cls-7{fill:#72ce06;}</style></defs><title>ui_hover_a</title><circle class="cls-1" cx="16.78" cy="16.78" r="16.28"/><path class="cls-2" d="M16.77,33.55A16.78,16.78,0,1,1,33.55,16.77,16.8,16.8,0,0,1,16.77,33.55ZM16.77,1A15.78,15.78,0,1,0,32.55,16.77,15.8,15.8,0,0,0,16.77,1Z"/><g class="cls-3"><circle class="cls-4" cx="16.78" cy="16.78" r="15.02"/><path class="cls-5" d="M16.77,32.3A15.53,15.53,0,1,1,32.3,16.77,15.55,15.55,0,0,1,16.77,32.3Zm0-30A14.53,14.53,0,1,0,31.3,16.77,14.54,14.54,0,0,0,16.77,2.25Z"/></g><circle class="cls-6" cx="16.78" cy="16.78" r="13.77"/><path class="cls-7" d="M19.94,22.63,19,19.57H14.33l-.94,3.06H10.46L15,9.73h3.33l4.56,12.9Zm-1.58-5.35C17.5,14.51,17,13,16.91,12.58s-.19-.65-.24-.86c-.19.75-.74,2.61-1.66,5.56Z"/></svg>