<svg id="Layer_1" data-name="Layer 1" xmlns="http://www.w3.org/2000/svg" viewBox="0 0 109 95"><defs><style>.cls-1{fill:#282828;}.cls-2{fill:#5defea;}</style></defs><title>ui_room_1</title><rect class="cls-1" x="12" y="38.82" width="20.81" height="20.81"/><path d="M33.31,60.13H11.5V38.32H33.31Zm-20.81-1H32.31V39.32H12.5Z"/><rect class="cls-1" x="32.81" y="38.82" width="20.81" height="20.81"/><path d="M54.12,60.13H32.31V38.32H54.12Zm-20.81-1H53.12V39.32H33.31Z"/><rect class="cls-1" x="53.62" y="38.82" width="20.81" height="20.81"/><path d="M74.93,60.13H53.12V38.32H74.93Zm-20.81-1H73.93V39.32H54.12Z"/><rect class="cls-1" x="74.44" y="38.82" width="20.81" height="20.81"/><path d="M95.75,60.13H73.93V38.32H95.75Zm-20.82-1H94.75V39.32H74.93Z"/><rect class="cls-2" x="95.25" y="41.12" width="2.66" height="15.35"/><rect class="cls-2" x="9.34" y="41.12" width="2.66" height="15.35"/><rect class="cls-2" x="83.51" y="53.29" width="2.66" height="15.35" transform="translate(145.8 -23.88) rotate(90)"/><rect class="cls-2" x="83.51" y="29.82" width="2.66" height="15.35" transform="translate(122.33 -47.35) rotate(90)"/></svg>