<svg id="Layer_1" data-name="Layer 1" xmlns="http://www.w3.org/2000/svg" viewBox="0 0 109 95"><defs><style>.cls-1{fill:#282828;}.cls-2{fill:#5defea;}</style></defs><title>ui_room_3</title><rect class="cls-1" x="44.91" y="51.22" width="20.81" height="20.81"/><path d="M66.22,72.53H44.41V50.72H66.22Zm-20.81-1H65.22V51.72H45.41Z"/><rect class="cls-1" x="24.1" y="30.41" width="20.81" height="20.81"/><path d="M45.41,51.72H23.6V29.91H45.41Zm-20.81-1H44.41V30.91H24.6Z"/><rect class="cls-1" x="44.91" y="30.41" width="20.81" height="20.81"/><path d="M66.22,51.72H44.41V29.91H66.22Zm-20.81-1H65.22V30.91H45.41Z"/><rect class="cls-1" x="65.72" y="30.41" width="20.81" height="20.81"/><path d="M87,51.72H65.22V29.91H87Zm-20.81-1H86V30.91H66.22Z"/><rect class="cls-2" x="86.53" y="32.71" width="2.66" height="15.35"/><rect class="cls-2" x="65.72" y="53.95" width="2.66" height="15.35"/><rect class="cls-2" x="21.44" y="32.71" width="2.66" height="15.35"/><rect class="cls-2" x="42.25" y="53.95" width="2.66" height="15.35"/></svg>