<svg id="Layer_1" data-name="Layer 1" xmlns="http://www.w3.org/2000/svg" viewBox="0 0 110 96"><defs><style>.cls-1{fill:#282828;}.cls-2{fill:#5defea;}</style></defs><title>ui_room_4</title><rect class="cls-1" x="23.6" y="46.67" width="20.81" height="20.81"/><path d="M44.91,68H23.1V46.17H44.91ZM24.1,67H43.91V47.17H24.1Z"/><rect class="cls-1" x="44.41" y="46.67" width="20.81" height="20.81"/><path d="M65.72,68H43.91V46.17H65.72ZM44.91,67H64.72V47.17H44.91Z"/><rect class="cls-1" x="44.41" y="25.86" width="20.81" height="20.81"/><path d="M65.72,47.17H43.91V25.36H65.72Zm-20.81-1H64.72V26.36H44.91Z"/><rect class="cls-1" x="65.22" y="25.86" width="20.81" height="20.81"/><path d="M86.53,47.17H64.72V25.36H86.53Zm-20.81-1H85.53V26.36H65.72Z"/><rect class="cls-2" x="86.03" y="28.59" width="2.66" height="15.35"/><rect class="cls-2" x="41.75" y="28.59" width="2.66" height="15.35"/><rect class="cls-2" x="20.94" y="48.97" width="2.66" height="15.35"/><rect class="cls-2" x="53.49" y="61.14" width="2.66" height="15.35" transform="translate(123.63 14) rotate(90)"/></svg>