<svg id="Layer_1" data-name="Layer 1" xmlns="http://www.w3.org/2000/svg" viewBox="0 0 109 95"><defs><style>.cls-1{fill:#282828;}.cls-2{fill:#5defea;}</style></defs><title>ui_room_2</title><rect class="cls-1" x="12" y="46.64" width="20.81" height="20.81"/><path d="M33.31,68H11.5V46.14H33.31ZM12.5,67H32.31V47.14H12.5Z"/><rect class="cls-1" x="12" y="25.51" width="20.81" height="20.81"/><path d="M33.31,46.82H11.5V25H33.31Zm-20.81-1H32.31V26H12.5Z"/><rect class="cls-1" x="32.81" y="46.64" width="20.81" height="20.81"/><path d="M54.12,68H32.31V46.14H54.12ZM33.31,67H53.12V47.14H33.31Z"/><rect class="cls-1" x="53.62" y="46.64" width="20.81" height="20.81"/><path d="M74.94,68H53.12V46.14H74.94ZM54.12,67H73.94V47.14H54.12Z"/><rect class="cls-1" x="74.44" y="46.64" width="20.81" height="20.81"/><path d="M95.75,68H73.94V46.14H95.75ZM74.94,67H94.75V47.14H74.94Z"/><rect class="cls-2" x="95.25" y="48.94" width="2.66" height="15.35"/><rect class="cls-2" x="9.34" y="48.94" width="2.66" height="15.35"/><rect class="cls-2" x="9.34" y="28.24" width="2.66" height="15.35"/><rect class="cls-2" x="32.81" y="28.24" width="2.66" height="15.35"/><rect class="cls-2" x="41.89" y="61.11" width="2.66" height="15.35" transform="translate(112 25.56) rotate(90)"/></svg>