<svg id="Layer_1" data-name="Layer 1" xmlns="http://www.w3.org/2000/svg" viewBox="0 0 109 95"><defs><style>.cls-1{fill:#282828;}.cls-2{fill:#5defea;}</style></defs><title>ui_room_5</title><rect class="cls-1" x="43.22" y="17.64" width="20.81" height="20.81" transform="translate(81.67 -25.58) rotate(90)"/><path d="M42.72,39V17.14H64.53V39Zm1-20.81V38H63.53V18.14Z"/><rect class="cls-1" x="43.22" y="38.45" width="20.81" height="20.81" transform="translate(102.48 -4.76) rotate(90)"/><path d="M42.72,59.76V38H64.53V59.76Zm1-20.81V58.76H63.53V39Z"/><rect class="cls-1" x="43.22" y="59.26" width="20.81" height="20.81" transform="translate(123.29 16.05) rotate(90)"/><path d="M42.72,80.58V58.76H64.53V80.58Zm1-20.82V79.58H63.53V59.76Z"/><rect class="cls-2" x="52.73" y="73.73" width="2.66" height="15.35" transform="translate(135.46 27.35) rotate(90)"/><rect class="cls-2" x="40.56" y="62" width="2.66" height="15.35" transform="translate(83.78 139.34) rotate(180)"/><rect class="cls-2" x="64.03" y="62" width="2.66" height="15.35" transform="translate(130.71 139.34) rotate(180)"/><rect class="cls-2" x="40.56" y="20.37" width="2.66" height="15.35" transform="translate(83.78 56.09) rotate(180)"/><rect class="cls-2" x="64.03" y="20.37" width="2.66" height="15.35" transform="translate(130.71 56.09) rotate(180)"/></svg>