<svg id="Layer_1" data-name="Layer 1" xmlns="http://www.w3.org/2000/svg" viewBox="0 0 109 95"><defs><style>.cls-1{fill:#282828;}.cls-2{fill:#5defea;}</style></defs><title>ui_room_6</title><rect class="cls-1" x="52.37" y="17.64" width="20.81" height="20.81" transform="translate(90.83 -34.73) rotate(90)"/><path d="M51.87,39V17.14H73.68V39Zm1-20.81V38H72.68V18.14Z"/><rect class="cls-1" x="52.37" y="38.45" width="20.81" height="20.81" transform="translate(111.64 -13.92) rotate(90)"/><path d="M51.87,59.76V38H73.68V59.76Zm1-20.81V58.76H72.68V39Z"/><rect class="cls-2" x="61.88" y="8.64" width="2.66" height="15.35" transform="translate(79.52 -46.9) rotate(90)"/><rect class="cls-2" x="73.18" y="20.37" width="2.66" height="15.35" transform="translate(149.02 56.09) rotate(180)"/><rect class="cls-1" x="31.56" y="38.45" width="20.81" height="20.81" transform="translate(90.83 6.89) rotate(90)"/><path d="M31.06,59.76V38H52.87V59.76Zm1-20.81V58.76H51.87V39Z"/><rect class="cls-1" x="31.56" y="59.26" width="20.81" height="20.81" transform="translate(111.64 27.7) rotate(90)"/><path d="M31.06,80.58V58.76H52.87V80.58Zm1-20.82V79.58H51.87V59.76Z"/><rect class="cls-2" x="28.91" y="62" width="2.66" height="15.35" transform="translate(60.47 139.34) rotate(180)"/></svg>